<svg version="1.1" xmlns="http://www.w3.org/2000/svg" xmlns:xlink="http://www.w3.org/1999/xlink" width="640" height="640" viewBox="0,0,640,640"><defs><clipPath id="clip-1"><rect x="33.07692" y="88.07692" transform="scale(2.6,2.6)" width="180" height="70"/></clipPath><clipPath id="clip-2"><rect x="-282.69938" y="-286.44947" transform="scale(3.46658,3.46658)" width="750" height="750" id="clip-2"/></clipPath><clipPath id="clip-3"><rect x="-282.69938" y="-286.44947" transform="scale(3.46658,3.46658)" width="750" height="750" id="clip-2"/></clipPath></defs><g fill="none" fill-rule="nonzero" stroke="none" stroke-width="0" stroke-linecap="butt" stroke-linejoin="miter" stroke-miterlimit="10" stroke-dasharray="" stroke-dashoffset="0" font-family="none" font-weight="none" font-size="none" text-anchor="none" style="mix-blend-mode: normal"><g fill="none" stroke="#000000"><g><rect x="10.5" y="161" width="619" height="182" id="logoTextAr"/></g></g><g clip-path="url(#clip-1)" fill="#141414" stroke="none"><g><g clip-path="url(#clip-2)"><g><g><g clip-path="url(#clip-3)"><g id="surface2607"><path d="M152.1375,293.63444c7.74592,0 13.4875,-6.0125 13.4875,-13.4875c0,-7.475 -5.74158,-13.4875 -13.4875,-13.4875c-7.475,0 -13.4875,6.0125 -13.4875,13.4875c0,7.475 6.0125,13.4875 13.4875,13.4875zM101.22092,411.7176h74.85842c15.7625,0 27.24592,-11.26658 27.24592,-26.975v-97.825c-15.7625,0.21658 -27.24592,11.2125 -27.24592,26.92092v70.90408h-47.66658v-72.90842c-15.70842,0 -27.19158,11.26658 -27.19158,26.975zM333.0676,334.80102h-26.92092v-47.88342h-48.96658c-15.4375,0 -26.92092,11.2125 -26.92092,26.92092v47.9375h48.9125v22.96658h-21.72092c-15.49158,0 -26.975,11.2125 -26.975,26.975h48.69592c15.70842,0 27.19158,-11.26658 27.19158,-26.975v-22.96658h26.70408zM278.90102,334.80102h-21.45v-20.9625h21.45zM366.51556,274.4051c7.52908,0 13.4875,-5.95842 13.4875,-13.4875c0,-7.69158 -5.95842,-13.43342 -13.4875,-13.43342c-7.475,0 -13.4875,5.74158 -13.4875,13.43342c0,7.52908 6.0125,13.4875 13.4875,13.4875zM380.27398,334.80102v-47.88342c-15.7625,0 -27.24592,11.2125 -27.24592,26.92092v20.9625h-52.86658v26.975h106.81658v-26.975zM402.73954,361.77602h52.65c15.70842,0 27.19158,-11.2125 27.19158,-26.975v-47.88342c-15.70842,0 -27.19158,11.2125 -27.19158,26.92092v20.9625h-52.65zM435.67296,402.18444c7.475,0 13.4875,-5.95842 13.4875,-13.43342c0,-7.74592 -6.0125,-13.75842 -13.4875,-13.75842c-7.475,0 -13.4875,6.0125 -13.4875,13.75842c0,7.475 6.0125,13.43342 13.4875,13.43342zM470.39362,402.18444c7.69158,0 13.70408,-5.95842 13.70408,-13.43342c0,-7.74592 -6.0125,-13.75842 -13.70408,-13.75842c-7.52908,0 -13.4875,6.0125 -13.4875,13.75842c0,7.475 5.95842,13.43342 13.4875,13.43342zM522.51556,274.4051c7.74592,0 13.4875,-5.95842 13.4875,-13.4875c0,-7.475 -5.74158,-13.43342 -13.4875,-13.43342c-7.475,0 -13.4875,5.95842 -13.4875,13.43342c0,7.52908 6.0125,13.4875 13.4875,13.4875zM484.59898,411.7176h26.43342c15.7625,0 27.24592,-11.26658 27.24592,-26.975v-97.825c-15.7625,0 -27.24592,11.2125 -27.24592,26.92092v70.90408c-15.22092,0 -26.43342,11.75408 -26.43342,26.975zM87.73342,137.13342"/></g></g></g></g></g></g></g></g></svg>