<svg id="visual" viewBox="0 0 900 600" width="900" height="600" xmlns="http://www.w3.org/2000/svg" xmlns:xlink="http://www.w3.org/1999/xlink" version="1.1"><path d="M0 55L10 55C20 55 40 55 60 51C80 47 100 39 120 36C140 33 160 35 180 39C200 43 220 49 240 48C260 47 280 39 300 36C320 33 340 35 360 38C380 41 400 45 420 48C440 51 460 53 480 50C500 47 520 39 540 38C560 37 580 43 600 44C620 45 640 41 660 39C680 37 700 37 720 36C740 35 760 33 780 35C800 37 820 43 840 45C860 47 880 45 890 44L900 43L900 0L890 0C880 0 860 0 840 0C820 0 800 0 780 0C760 0 740 0 720 0C700 0 680 0 660 0C640 0 620 0 600 0C580 0 560 0 540 0C520 0 500 0 480 0C460 0 440 0 420 0C400 0 380 0 360 0C340 0 320 0 300 0C280 0 260 0 240 0C220 0 200 0 180 0C160 0 140 0 120 0C100 0 80 0 60 0C40 0 20 0 10 0L0 0Z" fill="#fafbfc"></path><path d="M0 121L10 117C20 113 40 105 60 101C80 97 100 97 120 95C140 93 160 89 180 89C200 89 220 93 240 96C260 99 280 101 300 104C320 107 340 111 360 114C380 117 400 119 420 117C440 115 460 109 480 104C500 99 520 95 540 96C560 97 580 103 600 104C620 105 640 101 660 99C680 97 700 97 720 94C740 91 760 85 780 88C800 91 820 103 840 109C860 115 880 115 890 115L900 115L900 41L890 42C880 43 860 45 840 43C820 41 800 35 780 33C760 31 740 33 720 34C700 35 680 35 660 37C640 39 620 43 600 42C580 41 560 35 540 36C520 37 500 45 480 48C460 51 440 49 420 46C400 43 380 39 360 36C340 33 320 31 300 34C280 37 260 45 240 46C220 47 200 41 180 37C160 33 140 31 120 34C100 37 80 45 60 49C40 53 20 53 10 53L0 53Z" fill="#f9fafb"></path><path d="M0 181L10 178C20 175 40 169 60 174C80 179 100 195 120 195C140 195 160 179 180 179C200 179 220 195 240 203C260 211 280 211 300 209C320 207 340 203 360 206C380 209 400 219 420 217C440 215 460 201 480 190C500 179 520 171 540 173C560 175 580 187 600 190C620 193 640 187 660 189C680 191 700 201 720 203C740 205 760 199 780 197C800 195 820 197 840 198C860 199 880 199 890 199L900 199L900 113L890 113C880 113 860 113 840 107C820 101 800 89 780 86C760 83 740 89 720 92C700 95 680 95 660 97C640 99 620 103 600 102C580 101 560 95 540 94C520 93 500 97 480 102C460 107 440 113 420 115C400 117 380 115 360 112C340 109 320 105 300 102C280 99 260 97 240 94C220 91 200 87 180 87C160 87 140 91 120 93C100 95 80 95 60 99C40 103 20 111 10 115L0 119Z" fill="#f9fafb"></path><path d="M0 235L10 229C20 223 40 211 60 218C80 225 100 251 120 254C140 257 160 237 180 234C200 231 220 245 240 252C260 259 280 259 300 256C320 253 340 247 360 248C380 249 400 257 420 254C440 251 460 237 480 226C500 215 520 207 540 211C560 215 580 231 600 235C620 239 640 231 660 236C680 241 700 259 720 263C740 267 760 257 780 250C800 243 820 239 840 241C860 243 880 251 890 255L900 259L900 197L890 197C880 197 860 197 840 196C820 195 800 193 780 195C760 197 740 203 720 201C700 199 680 189 660 187C640 185 620 191 600 188C580 185 560 173 540 171C520 169 500 177 480 188C460 199 440 213 420 215C400 217 380 207 360 204C340 201 320 205 300 207C280 209 260 209 240 201C220 193 200 177 180 177C160 177 140 193 120 193C100 193 80 177 60 172C40 167 20 173 10 176L0 179Z" fill="#f8f9fa"></path><path d="M0 409L10 400C20 391 40 373 60 370C80 367 100 379 120 381C140 383 160 375 180 375C200 375 220 383 240 394C260 405 280 419 300 422C320 425 340 417 360 415C380 413 400 417 420 407C440 397 460 373 480 365C500 357 520 365 540 373C560 381 580 389 600 385C620 381 640 365 660 367C680 369 700 389 720 392C740 395 760 381 780 372C800 363 820 359 840 361C860 363 880 371 890 375L900 379L900 257L890 253C880 249 860 241 840 239C820 237 800 241 780 248C760 255 740 265 720 261C700 257 680 239 660 234C640 229 620 237 600 233C580 229 560 213 540 209C520 205 500 213 480 224C460 235 440 249 420 252C400 255 380 247 360 246C340 245 320 251 300 254C280 257 260 257 240 250C220 243 200 229 180 232C160 235 140 255 120 252C100 249 80 223 60 216C40 209 20 221 10 227L0 233Z" fill="#f1f3f5"></path><path d="M0 475L10 469C20 463 40 451 60 448C80 445 100 451 120 449C140 447 160 437 180 436C200 435 220 443 240 452C260 461 280 471 300 474C320 477 340 473 360 476C380 479 400 489 420 484C440 479 460 459 480 447C500 435 520 431 540 439C560 447 580 467 600 465C620 463 640 439 660 434C680 429 700 443 720 446C740 449 760 441 780 433C800 425 820 417 840 416C860 415 880 421 890 424L900 427L900 377L890 373C880 369 860 361 840 359C820 357 800 361 780 370C760 379 740 393 720 390C700 387 680 367 660 365C640 363 620 379 600 383C580 387 560 379 540 371C520 363 500 355 480 363C460 371 440 395 420 405C400 415 380 411 360 413C340 415 320 423 300 420C280 417 260 403 240 392C220 381 200 373 180 373C160 373 140 381 120 379C100 377 80 365 60 368C40 371 20 389 10 398L0 407Z" fill="#ebeef1"></path><path d="M0 601L10 601C20 601 40 601 60 601C80 601 100 601 120 601C140 601 160 601 180 601C200 601 220 601 240 601C260 601 280 601 300 601C320 601 340 601 360 601C380 601 400 601 420 601C440 601 460 601 480 601C500 601 520 601 540 601C560 601 580 601 600 601C620 601 640 601 660 601C680 601 700 601 720 601C740 601 760 601 780 601C800 601 820 601 840 601C860 601 880 601 890 601L900 601L900 425L890 422C880 419 860 413 840 414C820 415 800 423 780 431C760 439 740 447 720 444C700 441 680 427 660 432C640 437 620 461 600 463C580 465 560 445 540 437C520 429 500 433 480 445C460 457 440 477 420 482C400 487 380 477 360 474C340 471 320 475 300 472C280 469 260 459 240 450C220 441 200 433 180 434C160 435 140 445 120 447C100 449 80 443 60 446C40 449 20 461 10 467L0 473Z" fill="#e4e8ec"></path></svg>
