<svg id="visual" viewBox="0 0 900 600" width="900" height="600" xmlns="http://www.w3.org/2000/svg" xmlns:xlink="http://www.w3.org/1999/xlink" version="1.1"><g transform="translate(448.0633894646921 289.9788280788619)"><path d="M124.2 -155C159.6 -118.2 186.2 -77.9 204.3 -28.2C222.4 21.5 232 80.5 206.3 113.5C180.6 146.6 119.5 153.6 62.2 177.4C4.8 201.1 -48.9 241.5 -99.8 238.5C-150.7 235.4 -198.7 189 -213.2 136.4C-227.6 83.9 -208.3 25.3 -183.3 -17.6C-158.2 -60.5 -127.3 -87.7 -95.8 -125.2C-64.3 -162.6 -32.1 -210.3 6.1 -217.6C44.4 -224.9 88.7 -191.7 124.2 -155" fill="#f7f8f8"></path></g></svg>